# xmcd
#
# Track frame offsets: 
#        150
#        17363
#        35628
#        49910
#        65923
#        80358
#        96470
#        110535
#        130273
#        144783
#
# Disc length: 2119 seconds
#
# Revision: 2
# Processed by: cddbd v1.4PL0 Copyright (c) Steve Scherf et al.
# Submitted via: ExactAudioCopy v0.90b4
#
DISCID=8708450a
DTITLE=Various Artist - Greatest Country Hits of the 90's - 1993
DYEAR=1994
DGENRE=Country
TTITLE0=Joe Diffie - Honkey Tonk Attitude
TTITLE1=Joy Lynn White - Cold Day In July
TTITLE2=Doug Stone - Made For Loving You
TTITLE3=Matthews,Wright and King - I Got A Love
TTITLE4=Ricky Van Shelton - Just As I Am
TTITLE5=Patty Loveless - Blame It On Your Heart
TTITLE6=Collin Raye - Somebody Else's Moon
TTITLE7=Mary-Chapin Carpenter - The Hard Way
TTITLE8=Doug Stone - Why Didn't I Think Of That
TTITLE9=Gibson-Miller Band - Texas Tattoo
EXTD=
EXTT0=
EXTT1=
EXTT2=
EXTT3=
EXTT4=
EXTT5=
EXTT6=
EXTT7=
EXTT8=
EXTT9=
PLAYORDER=
